<?xml version="1.0" encoding="utf-8"?>
<!-- Generator: Adobe Illustrator 22.1.0, SVG Export Plug-In . SVG Version: 6.00 Build 0)  -->
<svg version="1.1" id="Layer_1" xmlns="http://www.w3.org/2000/svg" xmlns:xlink="http://www.w3.org/1999/xlink" x="0px" y="0px"
	 viewBox="0 0 612 252" style="enable-background:new 0 0 612 252;" xml:space="preserve">
<style type="text/css">
	.st0{fill:none;stroke:#429E46;stroke-width:17;stroke-miterlimit:10;}
	.st1{fill:none;stroke:#429E46;stroke-width:15;stroke-miterlimit:10;}
	.st2{fill:#429E46;}
	.st3{fill:none;stroke:#429E46;stroke-width:16;stroke-miterlimit:10;}
	.st4{clip-path:url(#SVGID_2_);fill:none;stroke:#429E46;stroke-width:16;stroke-miterlimit:10;}
	.st5{clip-path:url(#SVGID_4_);fill:none;stroke:#429E46;stroke-width:16;stroke-miterlimit:10;}
	.st6{fill:#459744;}
</style>
<ellipse transform="matrix(0.2908 -0.9568 0.9568 0.2908 -37.2998 173.8574)" class="st0" cx="98.6" cy="112.1" rx="64.1" ry="64.1"/>
<path class="st0" d="M316.9,138.1c-10,22.4-32.4,38.1-58.6,38.1c-35.4,0-64.1-28.7-64.1-64.1c0-35.4,28.7-64.1,64.1-64.1
	c33,0,60.2,25,63.7,57.1c0.2,2.3,0.4,12.1,0.4,14.5"/>
<line class="st1" x1="197.6" y1="112.1" x2="329.7" y2="112.1"/>
<path class="st2" d="M310,132.6h17c0,0,0.1,1.8-2.3,8.9l-15.6-6.8C309.1,134.7,309.6,133.7,310,132.6z"/>
<polygon class="st2" points="41.1,14.5 26.1,22.1 26.1,112.4 41.1,76.8 "/>
<path class="st3" d="M487.8,48c0,0-98.7,0-104.1,0c-5.4,0-31.6,4.1-31.6,32c0,27.7,28.8,32.1,33.4,32.1c3,0,64.4,0,68.6,0
	c6.7,0,26.9,7.2,26.9,33.9c0,24.4-26.6,30.1-33.4,30.1c-4.2,0-102.6,0-102.6,0"/>
<g>
	<defs>
		<polygon id="SVGID_1_" points="502.4,39.2 522.2,28.3 522.2,10.7 502.4,10.7 		"/>
	</defs>
	<clipPath id="SVGID_2_">
		<use xlink:href="#SVGID_1_"  style="overflow:visible;"/>
	</clipPath>
	<line class="st4" x1="512.2" y1="14.7" x2="512.2" y2="184.3"/>
</g>
<g>
	<defs>
		<polygon id="SVGID_3_" points="502.4,49.5 522.2,38.6 522.2,184.3 502.4,184.3 		"/>
	</defs>
	<clipPath id="SVGID_4_">
		<use xlink:href="#SVGID_3_"  style="overflow:visible;"/>
	</clipPath>
	<line class="st5" x1="512.2" y1="25.1" x2="512.2" y2="194.6"/>
</g>
<path class="st2" d="M536.9,54.9c1.4,0,10.8,19.6,12.4,19.6c1.6,0,9-4.9,9.8-4.3c0.8,0.6-5.6,29.2-4.6,29.7
	c1,0.5,13.4-14.5,14.3-14.5c1,0,2.5,7.4,3.3,7.9c0.9,0.5,15.1-3.1,15.7-2.4c0.6,0.8-4.3,16.7-4.3,17.7c0,1.1,6.8,2.7,6.8,3.7
	c0,1-26.4,19.9-26.4,21.5c0,1.7,2.9,8.3,2.3,8.8c-0.6,0.5-20.5-3.8-21.6-2.5c-1.1,1.3-1,26.6-1,26.6h-6.7V54.9z"/>
<g>
	<path class="st6" d="M27.5,232.9v-23.6h4.9c1.7,0,3,0.1,3.8,0.3c0.8,0.2,1.5,0.5,2.1,0.9c0.8,0.6,1.3,1.3,1.7,2.2
		c0.4,0.9,0.6,1.8,0.6,2.9c0,1.2-0.3,2.3-0.9,3.1c-0.6,0.8-1.5,1.4-2.6,1.8c1.4,0.2,2.5,0.8,3.3,1.9c0.8,1,1.2,2.3,1.2,3.9
		c0,0.9-0.2,1.8-0.5,2.7c-0.3,0.9-0.8,1.6-1.4,2.2c-0.7,0.7-1.5,1.1-2.5,1.4c-1,0.3-2.6,0.4-4.9,0.4H27.5z M30.3,211.7v7.9h2.2
		c2,0,3.4-0.3,4.2-0.9c0.8-0.6,1.2-1.6,1.2-2.9c0-1.5-0.4-2.6-1.1-3.2c-0.8-0.6-2.2-0.9-4.3-0.9H30.3z M30.3,221.8v8.6h2.2
		c1.5,0,2.6-0.1,3.2-0.2c0.7-0.1,1.2-0.3,1.6-0.6c0.5-0.3,0.9-0.8,1.1-1.4c0.3-0.6,0.4-1.3,0.4-2c0-0.9-0.2-1.6-0.5-2.2
		c-0.3-0.6-0.8-1.1-1.5-1.5c-0.4-0.2-0.8-0.4-1.3-0.5c-0.5-0.1-1.3-0.1-2.3-0.1h-0.8H30.3z"/>
	<path class="st6" d="M48.2,218.2v7.3c0,2.1,0.3,3.6,0.9,4.4c0.6,0.8,1.7,1.3,3.2,1.3c1.5,0,2.5-0.4,3.2-1.2
		c0.6-0.8,0.9-2.3,0.9-4.5v-7.3H59v8.6c0,2.2-0.6,3.9-1.7,5.1c-1.1,1.1-2.8,1.7-5,1.7c-2.2,0-3.9-0.6-5-1.7c-1.1-1.2-1.7-2.8-1.7-5
		v-8.6H48.2z"/>
	<path class="st6" d="M63.4,211.1c0-0.5,0.2-0.9,0.5-1.3c0.4-0.4,0.8-0.5,1.3-0.5c0.5,0,0.9,0.2,1.3,0.5c0.4,0.4,0.5,0.8,0.5,1.3
		c0,0.5-0.2,0.9-0.5,1.3c-0.4,0.4-0.8,0.5-1.3,0.5s-1-0.2-1.3-0.5C63.6,212,63.4,211.6,63.4,211.1z M64,232.9v-14.7h2.5v14.7H64z"/>
	<path class="st6" d="M72,232.9v-25h2.6v25H72z"/>
	<path class="st6" d="M93.6,207.9v25h-2.4v-2.7c-0.6,1.1-1.3,1.9-2.3,2.4c-0.9,0.6-2,0.9-3.1,0.9c-2.1,0-3.8-0.7-5.1-2.2
		c-1.3-1.5-1.9-3.4-1.9-5.8c0-2.4,0.6-4.3,1.9-5.8c1.3-1.4,3-2.2,5.1-2.2c1.2,0,2.3,0.3,3.2,0.8c0.9,0.6,1.6,1.4,2.2,2.5v-13H93.6z
		 M91.1,225.6c0-1.6-0.5-3-1.4-4c-0.9-1-2.1-1.5-3.6-1.5c-1.5,0-2.7,0.5-3.5,1.4c-0.8,0.9-1.3,2.2-1.3,3.8c0,1.8,0.4,3.2,1.3,4.3
		c0.8,1,2,1.5,3.5,1.5c1.5,0,2.8-0.5,3.6-1.5C90.7,228.7,91.1,227.3,91.1,225.6z"/>
	<path class="st6" d="M98.2,211.1c0-0.5,0.2-0.9,0.5-1.3c0.4-0.4,0.8-0.5,1.3-0.5c0.5,0,0.9,0.2,1.3,0.5c0.4,0.4,0.5,0.8,0.5,1.3
		c0,0.5-0.2,0.9-0.5,1.3c-0.4,0.4-0.8,0.5-1.3,0.5c-0.5,0-1-0.2-1.3-0.5C98.4,212,98.2,211.6,98.2,211.1z M98.8,232.9v-14.7h2.5
		v14.7H98.8z"/>
	<path class="st6" d="M106.7,232.9v-14.7h2.5v2.3c0.6-0.9,1.4-1.6,2.3-2.1c0.9-0.5,1.9-0.7,3.1-0.7c1.7,0,3.1,0.5,4.1,1.4
		c1,0.9,1.5,2.2,1.5,3.9v10h-2.6v-8.7c0-1.5-0.3-2.6-0.9-3.3c-0.6-0.7-1.6-1.1-2.9-1.1c-0.8,0-1.4,0.1-2.1,0.4
		c-0.6,0.3-1.1,0.7-1.5,1.2c-0.3,0.4-0.5,0.8-0.7,1.3c-0.1,0.5-0.2,1.4-0.2,2.6v7.6H106.7z"/>
	<path class="st6" d="M138.8,218.2v14.5c0,1.6-0.1,2.7-0.3,3.4c-0.2,0.7-0.6,1.3-1.1,1.8c-0.7,0.7-1.5,1.3-2.5,1.7
		c-1,0.4-2.1,0.5-3.4,0.5c-2.2,0-4-0.5-5.2-1.5c-1.3-1-1.9-2.5-2-4.3h2.8v0.2c0,1.1,0.4,2,1.1,2.6c0.8,0.6,1.8,0.9,3.2,0.9
		c1,0,1.9-0.2,2.6-0.5c0.7-0.3,1.3-0.8,1.6-1.5c0.2-0.4,0.4-0.8,0.5-1.3c0.1-0.5,0.1-1.2,0.1-2.1v-1.2v-1.3
		c-0.6,1.1-1.3,1.9-2.2,2.4c-0.9,0.6-2,0.8-3.1,0.8c-2.1,0-3.8-0.7-5.1-2.2c-1.3-1.4-1.9-3.4-1.9-5.7c0-2.4,0.6-4.3,1.9-5.7
		c1.3-1.4,2.9-2.1,5-2.1c1.2,0,2.3,0.3,3.2,0.8c0.9,0.6,1.7,1.4,2.2,2.4v-2.7H138.8z M136.4,225.6c0-1.7-0.5-3-1.4-4
		c-0.9-1-2.1-1.5-3.6-1.5c-1.5,0-2.7,0.5-3.5,1.4c-0.8,0.9-1.3,2.2-1.3,3.9c0,1.8,0.4,3.2,1.3,4.1s2.1,1.5,3.6,1.5
		c1.5,0,2.7-0.5,3.5-1.4C135.9,228.6,136.4,227.3,136.4,225.6z"/>
	<path class="st6" d="M153.9,232.9V209h12.6v2.6h-9.8v6.9h9.8v2.7h-9.8v9.2h9.8v2.7H153.9z"/>
	<path class="st6" d="M171.1,232.9v-15h2.5v2.3c0.6-1,1.4-1.7,2.3-2.1c0.9-0.5,2-0.7,3.1-0.7c1.8,0,3.1,0.5,4.1,1.4
		c1,0.9,1.5,2.2,1.5,3.9v10.2h-2.6v-8.8c0-1.5-0.3-2.6-1-3.4c-0.6-0.7-1.6-1.1-3-1.1c-0.8,0-1.5,0.1-2.1,0.4
		c-0.6,0.3-1.1,0.7-1.6,1.2c-0.3,0.4-0.5,0.8-0.7,1.3c-0.1,0.5-0.2,1.4-0.2,2.6v7.7H171.1z"/>
	<path class="st6" d="M194.7,233.8l-7.4-15.9h2.9l4.5,10.5l4.5-10.5h2.9L194.7,233.8z"/>
	<path class="st6" d="M218.2,225.8h-11.9v0.2c0,1.6,0.5,2.9,1.4,3.9c0.9,1,2.1,1.5,3.6,1.5c1,0,1.9-0.3,2.7-0.8
		c0.8-0.5,1.5-1.4,2.1-2.4l1.9,1.3c-0.8,1.4-1.7,2.4-2.9,3.1c-1.2,0.7-2.5,1-4.1,1c-2.3,0-4.1-0.8-5.5-2.3c-1.4-1.5-2.1-3.5-2.1-5.9
		c0-2.3,0.7-4.3,2.1-5.8c1.4-1.5,3.2-2.2,5.4-2.2c2.2,0,4,0.7,5.3,2.1c1.3,1.4,1.9,3.4,1.9,5.8V225.8z M215.5,223.7
		c-0.1-1.3-0.5-2.3-1.3-3.1c-0.8-0.7-1.9-1.1-3.2-1.1c-1.2,0-2.3,0.4-3.1,1.1c-0.8,0.7-1.3,1.7-1.4,3H215.5z"/>
	<path class="st6" d="M222.2,232.9v-25.4h2.6v25.4H222.2z"/>
	<path class="st6" d="M229,225.5c0-1.1,0.2-2.1,0.6-3.1c0.4-1,1-1.8,1.8-2.6c0.8-0.8,1.7-1.3,2.6-1.7c1-0.4,2-0.6,3.1-0.6
		c1.1,0,2.1,0.2,3.1,0.6c1,0.4,1.9,1,2.7,1.8c0.8,0.8,1.4,1.6,1.8,2.6c0.4,1,0.6,2,0.6,3.1c0,1.1-0.2,2.1-0.6,3.1
		c-0.4,1-1,1.8-1.8,2.6c-0.8,0.8-1.7,1.4-2.7,1.8c-1,0.4-2,0.6-3.1,0.6c-1.1,0-2.1-0.2-3.1-0.6c-1-0.4-1.9-1-2.6-1.8
		c-0.8-0.8-1.4-1.7-1.8-2.6C229.2,227.6,229,226.6,229,225.5z M231.7,225.5c0,1.6,0.5,2.9,1.6,4c1.1,1.1,2.3,1.6,3.8,1.6
		c1.5,0,2.8-0.5,3.8-1.6c1-1.1,1.6-2.4,1.6-4c0-1.6-0.5-2.9-1.6-4c-1-1.1-2.3-1.6-3.8-1.6c-1.5,0-2.8,0.5-3.9,1.6
		C232.2,222.5,231.7,223.9,231.7,225.5z"/>
	<path class="st6" d="M249.2,240.2v-22.3h2.4v2.8c0.6-1.1,1.3-1.9,2.3-2.5c0.9-0.6,2-0.9,3.2-0.9c2.2,0,3.9,0.7,5.2,2.2
		c1.3,1.5,2,3.4,2,5.9c0,2.5-0.6,4.4-1.9,5.9c-1.3,1.5-3,2.2-5.1,2.2c-1.2,0-2.3-0.3-3.2-0.8c-0.9-0.6-1.7-1.4-2.2-2.5v10H249.2z
		 M251.7,225.5c0,1.7,0.5,3,1.4,4c0.9,1,2.2,1.5,3.7,1.5c1.5,0,2.7-0.5,3.5-1.4c0.9-0.9,1.3-2.2,1.3-3.9c0-1.8-0.4-3.3-1.3-4.3
		c-0.9-1-2-1.6-3.6-1.6c-1.6,0-2.8,0.5-3.7,1.5C252.2,222.3,251.7,223.7,251.7,225.5z"/>
	<path class="st6" d="M281.8,225.8h-11.9v0.2c0,1.6,0.5,2.9,1.4,3.9c0.9,1,2.1,1.5,3.6,1.5c1,0,1.9-0.3,2.7-0.8
		c0.8-0.5,1.5-1.4,2.1-2.4l1.9,1.3c-0.8,1.4-1.7,2.4-2.9,3.1s-2.5,1-4.1,1c-2.3,0-4.1-0.8-5.5-2.3c-1.4-1.5-2.1-3.5-2.1-5.9
		c0-2.3,0.7-4.3,2.1-5.8c1.4-1.5,3.2-2.2,5.4-2.2c2.2,0,4,0.7,5.3,2.1c1.3,1.4,1.9,3.4,1.9,5.8V225.8z M279,223.7
		c-0.1-1.3-0.5-2.3-1.3-3.1c-0.8-0.7-1.9-1.1-3.2-1.1c-1.2,0-2.3,0.4-3.1,1.1c-0.8,0.7-1.3,1.7-1.4,3H279z"/>
	<path class="st6" d="M304.5,219.6c1.6,0.7,2.7,1.5,3.5,2.7c0.8,1.1,1.2,2.4,1.2,3.9c0,2.2-0.7,4-2.1,5.3c-1.4,1.3-3.3,2-5.6,2
		c-1.9,0-3.5-0.5-4.7-1.4c-1.3-1-2.1-2.3-2.6-4.1l2.6-1.3c0.3,1.5,0.9,2.5,1.7,3.3c0.8,0.7,1.8,1.1,3,1.1c1.4,0,2.6-0.4,3.5-1.2
		c0.9-0.8,1.3-1.9,1.3-3.2c0-1.1-0.3-2-0.9-2.8c-0.6-0.8-1.5-1.5-2.8-2l-2.9-1.2c-1.6-0.7-2.8-1.5-3.6-2.6c-0.8-1-1.2-2.3-1.2-3.8
		c0-1.7,0.6-3.1,1.9-4.2c1.3-1.1,2.9-1.7,4.8-1.7c1.4,0,2.7,0.3,3.7,0.9c1.1,0.6,1.9,1.5,2.5,2.7l-2.4,1.5c-0.5-0.9-1.1-1.6-1.8-2.1
		c-0.7-0.5-1.4-0.7-2.3-0.7c-1.1,0-1.9,0.3-2.6,1c-0.7,0.7-1,1.5-1,2.5c0,0.8,0.3,1.6,0.8,2.2c0.5,0.6,1.3,1.2,2.4,1.7L304.5,219.6z
		"/>
	<path class="st6" d="M312.1,240.2l4.1-8.8l-5.9-13.5h3l4.4,10.7l4.6-10.7h2.8l-10,22.3H312.1z"/>
	<path class="st6" d="M325.9,230.4l2.2-1.5c0.4,0.8,0.9,1.4,1.6,1.8c0.6,0.4,1.4,0.6,2.2,0.6c0.8,0,1.5-0.2,2-0.6
		c0.5-0.4,0.8-1,0.8-1.6c0-0.5-0.2-1-0.5-1.3c-0.4-0.3-1-0.7-1.8-1l-0.4-0.1c-3.6-1.3-5.5-2.8-5.5-4.7c0-1.3,0.5-2.4,1.5-3.3
		c1-0.8,2.3-1.3,3.8-1.3c1.3,0,2.4,0.3,3.3,0.8c0.9,0.5,1.6,1.3,2,2.2l-2.1,1.3c-0.3-0.7-0.8-1.2-1.3-1.6c-0.6-0.4-1.3-0.6-2.1-0.6
		c-0.8,0-1.4,0.2-1.8,0.6c-0.5,0.4-0.7,1-0.7,1.6c0,0.9,1,1.7,3,2.3c0.4,0.1,0.7,0.2,0.9,0.3c1.6,0.5,2.8,1.1,3.4,1.8
		c0.6,0.7,1,1.6,1,2.7c0,1.4-0.5,2.6-1.5,3.4c-1,0.9-2.3,1.3-4,1.3c-1.4,0-2.6-0.3-3.6-0.8C327.3,232.2,326.5,231.4,325.9,230.4z"/>
	<path class="st6" d="M341.5,220h-2.7v-2.1h2.7v-6h2.6v6h2.7v2.1h-2.7v12.9h-2.6V220z"/>
	<path class="st6" d="M363.1,225.8h-11.9v0.2c0,1.6,0.5,2.9,1.4,3.9c0.9,1,2.1,1.5,3.6,1.5c1,0,1.9-0.3,2.7-0.8
		c0.8-0.5,1.5-1.4,2.1-2.4l1.9,1.3c-0.8,1.4-1.7,2.4-2.9,3.1c-1.2,0.7-2.5,1-4.1,1c-2.3,0-4.1-0.8-5.5-2.3c-1.4-1.5-2.1-3.5-2.1-5.9
		c0-2.3,0.7-4.3,2.1-5.8c1.4-1.5,3.2-2.2,5.4-2.2c2.2,0,4,0.7,5.3,2.1c1.3,1.4,1.9,3.4,1.9,5.8V225.8z M360.4,223.7
		c-0.1-1.3-0.5-2.3-1.3-3.1c-0.8-0.7-1.9-1.1-3.2-1.1c-1.2,0-2.3,0.4-3.1,1.1c-0.8,0.7-1.3,1.7-1.4,3H360.4z"/>
	<path class="st6" d="M387.5,232.9v-8.7c0-1.5-0.3-2.6-0.9-3.3c-0.6-0.7-1.5-1.1-2.8-1.1c-0.7,0-1.3,0.1-1.9,0.4
		c-0.6,0.3-1.1,0.7-1.5,1.2c-0.3,0.4-0.5,0.8-0.6,1.4c-0.1,0.5-0.2,1.4-0.2,2.5v7.6h-2.4v-8.7c0-1.5-0.3-2.6-0.9-3.3
		c-0.6-0.7-1.5-1.1-2.8-1.1c-0.7,0-1.3,0.1-1.9,0.4c-0.6,0.3-1.1,0.7-1.5,1.2c-0.3,0.4-0.5,0.8-0.6,1.3c-0.1,0.5-0.2,1.4-0.2,2.6
		v7.6H367v-14.7h2.5v2.3c0.6-0.9,1.3-1.6,2.2-2.1c0.8-0.5,1.8-0.7,2.9-0.7c1.2,0,2.2,0.3,3,0.8c0.8,0.5,1.5,1.3,1.9,2.2
		c0.6-1,1.4-1.8,2.2-2.3c0.9-0.5,1.9-0.7,3-0.7c1.6,0,2.9,0.5,3.9,1.4c0.9,0.9,1.4,2.2,1.4,3.9v10H387.5z"/>
	<path class="st6" d="M393.4,230.4l2.2-1.4c0.4,0.8,0.9,1.4,1.5,1.8c0.6,0.4,1.4,0.6,2.2,0.6c0.8,0,1.5-0.2,2-0.6
		c0.5-0.4,0.8-0.9,0.8-1.6c0-0.5-0.2-0.9-0.5-1.3c-0.3-0.3-0.9-0.7-1.8-1l-0.4-0.1c-3.6-1.2-5.4-2.8-5.4-4.6c0-1.3,0.5-2.4,1.4-3.2
		c1-0.8,2.2-1.2,3.8-1.2c1.3,0,2.4,0.3,3.3,0.8c0.9,0.5,1.6,1.2,2,2.2l-2,1.3c-0.3-0.7-0.7-1.2-1.3-1.6c-0.6-0.4-1.3-0.5-2-0.5
		c-0.7,0-1.3,0.2-1.8,0.6c-0.5,0.4-0.7,0.9-0.7,1.6c0,0.9,1,1.7,2.9,2.3c0.4,0.1,0.7,0.2,0.9,0.3c1.6,0.5,2.7,1.1,3.3,1.8
		c0.6,0.7,0.9,1.5,0.9,2.6c0,1.4-0.5,2.5-1.5,3.4c-1,0.9-2.3,1.3-3.9,1.3c-1.4,0-2.5-0.3-3.5-0.8C394.7,232.2,394,231.5,393.4,230.4
		z"/>
	<path class="st6" d="M418.4,232.9v-23.6h2.8v23.6H418.4z"/>
	<path class="st6" d="M426.7,232.9v-14.7h2.5v2.3c0.6-0.9,1.4-1.6,2.3-2.1c0.9-0.5,1.9-0.7,3.1-0.7c1.7,0,3.1,0.5,4.1,1.4
		c1,0.9,1.5,2.2,1.5,3.9v10h-2.6v-8.7c0-1.5-0.3-2.6-0.9-3.3c-0.6-0.7-1.6-1.1-2.9-1.1c-0.8,0-1.4,0.1-2.1,0.4
		c-0.6,0.3-1.1,0.7-1.5,1.2c-0.3,0.4-0.5,0.8-0.7,1.3c-0.1,0.5-0.2,1.4-0.2,2.6v7.6H426.7z"/>
	<path class="st6" d="M443.5,230.4l2.2-1.4c0.4,0.8,0.9,1.4,1.5,1.8c0.6,0.4,1.4,0.6,2.2,0.6c0.8,0,1.5-0.2,2-0.6
		c0.5-0.4,0.8-0.9,0.8-1.6c0-0.5-0.2-0.9-0.5-1.3c-0.3-0.3-0.9-0.7-1.8-1l-0.4-0.1c-3.6-1.2-5.4-2.8-5.4-4.6c0-1.3,0.5-2.4,1.4-3.2
		c1-0.8,2.2-1.2,3.8-1.2c1.3,0,2.4,0.3,3.3,0.8c0.9,0.5,1.6,1.2,2,2.2l-2,1.3c-0.3-0.7-0.7-1.2-1.3-1.6c-0.6-0.4-1.3-0.5-2-0.5
		c-0.7,0-1.3,0.2-1.8,0.6c-0.5,0.4-0.7,0.9-0.7,1.6c0,0.9,1,1.7,2.9,2.3c0.4,0.1,0.7,0.2,0.9,0.3c1.6,0.5,2.7,1.1,3.3,1.8
		c0.6,0.7,0.9,1.5,0.9,2.6c0,1.4-0.5,2.5-1.5,3.4c-1,0.9-2.3,1.3-3.9,1.3c-1.4,0-2.5-0.3-3.5-0.8
		C444.8,232.2,444.1,231.5,443.5,230.4z"/>
	<path class="st6" d="M458.9,220.2h-2.7v-2.1h2.7v-5.9h2.6v5.9h2.7v2.1h-2.7v12.7h-2.6V220.2z"/>
	<path class="st6" d="M480.8,218.2v14.7h-2.4v-2.7c-0.6,1.1-1.3,1.9-2.3,2.5c-0.9,0.6-1.9,0.8-3.1,0.8c-2.1,0-3.8-0.7-5.1-2.2
		c-1.3-1.5-1.9-3.4-1.9-5.8c0-2.4,0.6-4.4,1.9-5.8c1.3-1.4,2.9-2.2,5-2.2c1.2,0,2.3,0.3,3.2,0.8c0.9,0.6,1.6,1.4,2.2,2.5v-2.8H480.8
		z M478.3,225.7c0-1.7-0.5-3-1.4-4c-0.9-1-2.1-1.5-3.6-1.5c-1.5,0-2.7,0.5-3.5,1.4c-0.8,0.9-1.3,2.2-1.3,3.9c0,1.8,0.4,3.2,1.3,4.1
		c0.9,1,2.1,1.5,3.6,1.5c1.5,0,2.7-0.5,3.5-1.4C477.9,228.7,478.3,227.4,478.3,225.7z"/>
	<path class="st6" d="M485.9,232.9v-25h2.6v25H485.9z"/>
	<path class="st6" d="M493.9,232.9v-25h2.6v25H493.9z"/>
	<path class="st6" d="M515.8,217.9v15h-2.5v-2.7c-0.6,1.1-1.4,1.9-2.3,2.5c-0.9,0.6-2,0.9-3.1,0.9c-2.1,0-3.9-0.7-5.2-2.2
		c-1.3-1.5-2-3.4-2-5.9c0-2.5,0.6-4.4,1.9-5.9c1.3-1.5,3-2.2,5.1-2.2c1.3,0,2.3,0.3,3.3,0.8c0.9,0.6,1.7,1.4,2.2,2.5v-2.8H515.8z
		 M513.3,225.6c0-1.7-0.5-3.1-1.4-4.1c-0.9-1-2.1-1.5-3.6-1.5c-1.5,0-2.7,0.5-3.6,1.4c-0.9,0.9-1.3,2.3-1.3,4c0,1.8,0.4,3.2,1.3,4.2
		c0.9,1,2.1,1.5,3.7,1.5c1.5,0,2.7-0.5,3.6-1.4C512.8,228.6,513.3,227.3,513.3,225.6z"/>
	<path class="st6" d="M521.3,220h-2.7v-2.1h2.7v-6h2.6v6h2.7v2.1h-2.7v12.9h-2.6V220z"/>
	<path class="st6" d="M529.1,210.7c0-0.5,0.2-1,0.5-1.3c0.4-0.4,0.8-0.5,1.3-0.5c0.5,0,1,0.2,1.3,0.6c0.4,0.4,0.5,0.8,0.5,1.3
		c0,0.5-0.2,0.9-0.5,1.3c-0.4,0.4-0.8,0.5-1.3,0.5c-0.5,0-1-0.2-1.3-0.5C529.3,211.7,529.1,211.3,529.1,210.7z M529.7,232.9v-15h2.6
		v15H529.7z"/>
	<path class="st6" d="M536.4,225.5c0-1.1,0.2-2.1,0.6-3.1c0.4-1,1-1.8,1.8-2.6c0.8-0.8,1.7-1.3,2.6-1.7c1-0.4,2-0.6,3.1-0.6
		c1.1,0,2.1,0.2,3.1,0.6c1,0.4,1.9,1,2.7,1.8c0.8,0.8,1.4,1.6,1.8,2.6c0.4,1,0.6,2,0.6,3.1c0,1.1-0.2,2.1-0.6,3.1
		c-0.4,1-1,1.8-1.8,2.6c-0.8,0.8-1.7,1.4-2.7,1.8c-1,0.4-2,0.6-3.1,0.6c-1.1,0-2.1-0.2-3.1-0.6c-1-0.4-1.9-1-2.6-1.8
		c-0.8-0.8-1.4-1.7-1.8-2.6C536.6,227.6,536.4,226.6,536.4,225.5z M539.2,225.5c0,1.6,0.5,2.9,1.6,4c1.1,1.1,2.3,1.6,3.8,1.6
		c1.5,0,2.8-0.5,3.8-1.6c1-1.1,1.6-2.4,1.6-4c0-1.6-0.5-2.9-1.6-4c-1-1.1-2.3-1.6-3.8-1.6c-1.5,0-2.8,0.5-3.9,1.6
		C539.7,222.5,539.2,223.9,539.2,225.5z"/>
	<path class="st6" d="M556.7,232.9v-15h2.5v2.3c0.6-1,1.4-1.7,2.3-2.1c0.9-0.5,2-0.7,3.1-0.7c1.8,0,3.1,0.5,4.1,1.4
		c1,0.9,1.5,2.2,1.5,3.9v10.2h-2.6v-8.8c0-1.5-0.3-2.6-1-3.4c-0.6-0.7-1.6-1.1-3-1.1c-0.8,0-1.5,0.1-2.1,0.4
		c-0.6,0.3-1.1,0.7-1.6,1.2c-0.3,0.4-0.5,0.8-0.7,1.3c-0.1,0.5-0.2,1.4-0.2,2.6v7.7H556.7z"/>
	<path class="st6" d="M573.8,230.4l2.2-1.5c0.4,0.8,0.9,1.4,1.6,1.8c0.6,0.4,1.4,0.6,2.2,0.6c0.8,0,1.5-0.2,2-0.6
		c0.5-0.4,0.8-1,0.8-1.6c0-0.5-0.2-1-0.5-1.3c-0.4-0.3-1-0.7-1.8-1l-0.4-0.1c-3.6-1.3-5.5-2.8-5.5-4.7c0-1.3,0.5-2.4,1.5-3.3
		c1-0.8,2.3-1.3,3.8-1.3c1.3,0,2.4,0.3,3.3,0.8c0.9,0.5,1.6,1.3,2,2.2l-2.1,1.3c-0.3-0.7-0.8-1.2-1.3-1.6c-0.6-0.4-1.3-0.6-2.1-0.6
		c-0.8,0-1.4,0.2-1.8,0.6c-0.5,0.4-0.7,1-0.7,1.6c0,0.9,1,1.7,3,2.3c0.4,0.1,0.7,0.2,0.9,0.3c1.6,0.5,2.8,1.1,3.4,1.8
		c0.6,0.7,1,1.6,1,2.7c0,1.4-0.5,2.6-1.5,3.4c-1,0.9-2.3,1.3-4,1.3c-1.4,0-2.6-0.3-3.6-0.8C575.2,232.2,574.4,231.4,573.8,230.4z"/>
</g>
</svg>
