<?xml version="1.0" encoding="utf-8"?>
<!-- Generator: Adobe Illustrator 26.5.0, SVG Export Plug-In . SVG Version: 6.00 Build 0)  -->
<svg version="1.1" id="Layer_1" xmlns="http://www.w3.org/2000/svg" xmlns:xlink="http://www.w3.org/1999/xlink" x="0px" y="0px"
	 viewBox="0 0 390.6 320.3" style="enable-background:new 0 0 390.6 320.3;" xml:space="preserve">
<style type="text/css">
	.st0{fill:#104735;}
	.st1{fill:#FFC62F;}
</style>
<g>
	<g>
		<g>
			<path d="M30.5,318.9c-2.7,0.6-5.6,1.4-10.4,1.4c-9.3,0-20.1-4.7-20.1-18C0,290.1,8.5,284,20.1,284c3.6,0,7,0.8,10.4,1.8l-0.8,7.6
				c-3-1.7-5.9-2.5-9.1-2.5c-6.6,0-10.9,4.8-10.9,11.3c0,6.9,4.9,11,11.7,11c3.1,0,6.2-0.8,8.7-1.8L30.5,318.9z"/>
			<path d="M51,284.1c11.5,0,17.6,6.9,17.6,18.1c0,11.1-6.1,18.1-17.6,18.1c-11.4,0-17.6-7-17.6-18.1C33.4,291,39.5,284.1,51,284.1z
				 M51,313.4c5.7,0,7.9-5.4,7.9-11.2c0-6.1-2.3-11.2-7.9-11.2c-5.7,0-7.9,5.1-7.9,11.2C43.1,308,45.3,313.4,51,313.4z"/>
			<path d="M73.9,284.7h11.9l11.8,23.8h0.1l-0.1-23.8h8.5v35H94.5l-12.2-23.9h-0.1l0.3,23.9h-8.6L73.9,284.7L73.9,284.7z"/>
			<path d="M112.9,311.1c2.4,1.3,5.8,2.3,9.6,2.3c3,0,5.8-0.6,5.8-3.4c0-6.5-16.6-2.4-16.6-15.2c0-8.4,8.2-10.7,15.3-10.7
				c3.4,0,6.7,0.5,9,1.3l-0.6,7.2c-2.4-1.1-5.1-1.6-7.8-1.6c-2.4,0-6.3,0.2-6.3,3.3c0,5.7,16.6,1.9,16.6,14.5
				c0,9.1-7.6,11.5-15.4,11.5c-3.3,0-7.3-0.5-10.4-1.5L112.9,311.1z"/>
			<path d="M149.5,291.6h-8.6v-6.9h26.6v6.9h-8.7v28.1h-9.3V291.6z"/>
			<path d="M171.1,284.7h16.7c6.2,0,11.3,2.8,11.3,8.8c0,4.7-2.2,7.8-6.7,8.8v0.1c3,0.8,3.2,3.5,5,7.7l3.4,9.5h-9.7l-2-6.3
				c-1.9-6-3.1-7.5-6.6-7.5h-2v13.8h-9.3L171.1,284.7L171.1,284.7z M180.5,299.2h2.5c3,0,6.8-0.1,6.8-4.1c0-3.3-3.3-3.9-6.8-3.9
				h-2.5V299.2z"/>
			<path d="M235.1,306.4c0,9.6-6.2,13.9-15.4,13.9c-9.1,0-15.4-4.3-15.4-13.9v-21.7h9.3v20.2c0,4.6,1.3,8.5,6,8.5c4.8,0,6-3.9,6-8.5
				v-20.2h9.3v21.7H235.1z"/>
			<path d="M270.3,318.9c-2.7,0.6-5.6,1.4-10.4,1.4c-9.3,0-20.1-4.7-20.1-18c0-12.2,8.5-18.3,20.1-18.3c3.6,0,7,0.8,10.4,1.8
				l-0.7,7.6c-3-1.7-5.9-2.5-9.1-2.5c-6.6,0-10.9,4.8-10.9,11.3c0,6.9,4.9,11,11.7,11c3.1,0,6.2-0.8,8.7-1.8L270.3,318.9z"/>
			<path d="M280.6,291.6H272v-6.9h26.6v6.9H290v28.1h-9.3v-28.1H280.6z"/>
			<path d="M302.9,284.7h9.3v35h-9.3V284.7z"/>
			<path d="M335.5,284.1c11.6,0,17.6,6.9,17.6,18.1c0,11.1-6.1,18.1-17.6,18.1c-11.4,0-17.6-7-17.6-18.1
				C317.9,291,323.9,284.1,335.5,284.1z M335.5,313.4c5.7,0,7.9-5.4,7.9-11.2c0-6.1-2.3-11.2-7.9-11.2c-5.7,0-7.9,5.1-7.9,11.2
				C327.5,308,329.8,313.4,335.5,313.4z"/>
			<path d="M358.4,284.7h11.9l11.8,23.8h0.1l-0.2-23.8h8.6v35H379l-12.2-23.9h-0.1l0.3,23.9h-8.6L358.4,284.7L358.4,284.7z"/>
		</g>
	</g>
	<g id="PCL_x5F_Logo_x5F_CB_x5F_RGB">
		<g id="PCL_Logo_1_">
			<path id="PCL_green_outline_1_" class="st0" d="M12.7,125.7c0,69.3,81.9,125.8,182.5,125.8c100.7,0,182.6-56.3,182.6-125.7
				C377.8,56.5,295.9,0,195.3,0C94.7,0,12.7,56.4,12.7,125.7"/>
			<path id="PCL_yellow_oval_2_" class="st1" d="M16.7,125.7C16.7,58.6,96.9,4,195.3,4c98.5,0,178.6,54.7,178.6,121.8
				s-80.2,121.7-178.6,121.7C96.8,247.5,16.7,192.9,16.7,125.7"/>
			<path id="PCL_green_oval_1_" class="st0" d="M195.3,19.4C105.6,19.4,32.9,67,32.9,125.7c0,58.8,72.7,106.4,162.3,106.5
				c89.7,0,162.4-47.6,162.4-106.4C357.7,67.1,285,19.4,195.3,19.4z M120.6,138.7h-14.5l-5.1,26.1H72.2L89.9,77h42.3
				c25.2,0,34.3,15.5,30.6,33.6C159.1,129.5,150.7,138.7,120.6,138.7z M203.6,166.4c-22.9,0-40.7-12.5-40.7-37.7
				c0-37.6,27.7-54.3,53.5-54.3c26.8,0,36.9,19.3,35.8,33.9h-24.1c0-6.8-4.7-12.4-13.7-12.4c-10.1,0-20.6,9.3-23.3,26.2
				c-2,12.4-0.7,23.9,14,23.9c9.8,0,17.5-9.8,19.3-15.1h26.1C245,152.6,226.8,166.4,203.6,166.4z M311,164.9h-65.1l17.4-87.8h26.8
				l-12.6,64.5h38.3L311,164.9z M136,107.6c-1.5,7.6-6.9,10.2-13.6,10.2h-12l3.9-19.5h8.2C128.7,98.3,137.7,99.4,136,107.6z"/>
		</g>
	</g>
</g>
</svg>
